<svg width="16" height="20" viewBox="0 0 16 20" fill="none" xmlns="http://www.w3.org/2000/svg">
<path d="M4.27062 1.71012L6.34062 0.870124C7.15062 0.540124 8.08062 0.930124 8.41062 1.75012L9.04062 3.29012C9.37062 4.10012 8.98062 5.03012 8.16062 5.37012L5.87062 6.30012C6.11062 7.45012 6.48062 8.80012 7.06062 10.2601C7.71062 11.9101 8.46062 13.2701 9.14062 14.3601L11.4306 13.4301C12.2506 13.1001 13.1806 13.4901 13.5106 14.3101L14.1406 15.8501C14.4706 16.6701 14.0806 17.6001 13.2606 17.9301L11.1906 18.7701L11.1506 18.7901C8.92062 19.6901 6.35062 18.8201 5.19062 16.7201C4.41062 15.3101 3.64062 13.7301 2.93062 11.9601C2.29062 10.3601 1.79062 8.83012 1.41062 7.41012C0.780618 5.08012 2.00062 2.65012 4.23062 1.74012L4.27062 1.71012Z" stroke="#646464" stroke-width="1.5" stroke-miterlimit="10" stroke-linecap="round" stroke-linejoin="round"/>
</svg>
