<svg width="16" height="21" viewBox="0 0 16 21" fill="none" xmlns="http://www.w3.org/2000/svg">
<path d="M14.3904 7.9901C14.3904 12.1401 10.3404 17.1301 8.69035 18.9901C8.32035 19.4001 7.68035 19.4001 7.31035 18.9901C5.66035 17.1301 1.61035 12.1401 1.61035 7.9901C1.61035 4.4601 4.47035 1.6001 8.00035 1.6001C11.5304 1.6001 14.3904 4.4601 14.3904 7.9901Z" stroke="#646464" stroke-width="1.5" stroke-miterlimit="10" stroke-linecap="round" stroke-linejoin="round"/>
<path d="M7.99066 10.5502C9.40451 10.5502 10.5507 9.40402 10.5507 7.99018C10.5507 6.57633 9.40451 5.43018 7.99066 5.43018C6.57682 5.43018 5.43066 6.57633 5.43066 7.99018C5.43066 9.40402 6.57682 10.5502 7.99066 10.5502Z" stroke="#646464" stroke-width="1.5" stroke-miterlimit="10" stroke-linecap="round" stroke-linejoin="round"/>
</svg>
